<svg xmlns="http://www.w3.org/2000/svg" fill="none" viewBox="0 0 1024 1025" height="1025" width="1024">
<rect fill="#FFF7EB" height="1024" width="1024"></rect>
<path fill="#F6B88A" d="M426.438 758.321L412.649 578.45H614.311V758.321C616.32 788.252 629.252 817.901 717.89 824.084C710.823 880.618 759.41 976.456 520.89 975.954C282.37 975.452 315.94 859.735 313.289 812.034C378.364 814.684 424.357 789.32 426.438 758.321Z" clip-rule="evenodd" fill-rule="evenodd"></path>
<path stroke-linecap="round" stroke-width="7.06207" stroke="#EA9E66" d="M483.508 840.588L422.764 820.581"></path>
<path stroke-linecap="round" stroke-width="7.06207" stroke="#EA9E66" d="M562.34 840.588L623.084 820.581"></path>
<path fill="#EA9E66" d="M614.308 634.089C614.308 634.089 535.223 716.121 423.03 708.171C423.03 698.454 412.646 580.217 412.646 580.217H614.308V634.089Z" clip-rule="evenodd" fill-rule="evenodd"></path>
<path fill="#F6B88A" d="M369.548 458.92C369.548 458.92 341.158 431.243 321.174 452.084C311.756 461.901 312.414 489.276 325.09 515.235C330.931 525.202 339.025 535.977 349.681 543.755C358.854 550.451 369.612 547.208 382.78 547.032L369.548 458.92Z" clip-rule="evenodd" fill-rule="evenodd"></path>
<path fill="#F6B88A" d="M661.919 458.92C661.919 458.92 690.309 431.243 710.293 452.084C719.711 461.901 719.052 489.276 706.377 515.235C700.536 525.202 692.442 535.977 681.786 543.755C672.612 550.451 661.854 547.208 648.687 547.032L661.919 458.92Z" clip-rule="evenodd" fill-rule="evenodd"></path>
<path fill="#FFCCA6" d="M511.378 208.712C393.595 208.712 344.654 308.825 354.092 431.305C358.541 489.047 355.634 499.405 369.009 558.036C373.635 578.339 412.7 641.38 466.349 666.077C483.147 673.81 500.247 673.276 519.295 673.276C535.736 673.276 552.497 674.554 566.944 667.875C618.124 644.214 654.434 579.3 659.171 558.036C671.962 500.586 671.962 489.479 676.592 431.305C686.285 309.485 637.079 208.712 519.295 208.712H511.378Z" clip-rule="evenodd" fill-rule="evenodd"></path>
<path fill="#654840" d="M552.201 409.6C549.818 409.6 547.795 407.767 547.601 405.341C547.398 402.795 549.291 400.563 551.832 400.35L612.171 395.489C612.818 395.443 613.437 395.517 614.037 395.721L627.367 400.286C629.778 401.11 631.071 403.748 630.24 406.165C629.418 408.582 626.794 409.897 624.374 409.045L611.959 404.795L552.58 409.591C552.451 409.6 552.321 409.6 552.201 409.6Z" clip-rule="evenodd" fill-rule="evenodd"></path>
<path fill="#654840" d="M472.277 409.6C474.661 409.6 476.684 407.767 476.878 405.341C477.081 402.795 475.187 400.563 472.647 400.35L412.307 395.489C411.661 395.443 411.042 395.517 410.441 395.721L397.112 400.286C394.701 401.11 393.407 403.748 394.239 406.165C395.061 408.582 397.684 409.897 400.104 409.045L412.52 404.795L471.899 409.591C472.028 409.6 472.157 409.6 472.277 409.6Z" clip-rule="evenodd" fill-rule="evenodd"></path>
<path fill="#805C53" d="M650.106 414.069L660.94 428.792L671.955 479.087C677.752 456.479 682.529 410.461 682.529 404.426C682.529 308.318 628.257 238.345 521.787 238.345C398.475 238.345 346.316 304.595 346.316 404.301C346.316 444.22 359.854 480.221 359.854 480.221L366.313 428.792C366.313 428.792 375.555 415.72 376.186 413.702C378.539 406.167 374.13 351.824 382.071 322.583C382.071 322.583 466.121 289.904 535.663 320.065C535.663 320.065 580.301 294.092 637.627 321.324C645.787 352.851 650.106 414.069 650.106 414.069Z" clip-rule="evenodd" fill-rule="evenodd"></path>
<path fill="#3E2A25" d="M348.009 424.434C348.009 424.434 326.027 350.852 331.637 312.888C334.906 290.814 370.32 248.545 387.758 232.265C408.176 213.198 423.203 201.152 458.837 185.391C522.422 157.275 559.839 207.894 559.839 207.894C559.839 207.894 621.561 161.021 698.249 301.631C709.121 321.567 697.313 370.998 679.775 429.358C679.775 429.358 653.827 411.779 631.376 356.945C598.761 277.241 540.199 340.065 540.199 340.065C540.199 340.065 471.901 306.745 435.918 326.941C365.776 366.314 420.951 384.122 348.009 424.434Z" clip-rule="evenodd" fill-rule="evenodd"></path>
<path fill="#221410" d="M425.266 291.573C402.025 312.747 398.734 325.325 393.984 368.993C423.561 310.231 477.846 314.262 539.64 339.862C539.64 339.862 492.872 244.983 425.266 291.573Z" clip-rule="evenodd" fill-rule="evenodd"></path>
<path fill="#221410" d="M634.979 362.814C634.979 362.814 600.551 248.055 539.641 339.862C594.372 310.731 634.979 362.814 634.979 362.814Z" clip-rule="evenodd" fill-rule="evenodd"></path>
<path fill="#DD936F" d="M535.894 429.252C535.898 429.254 535.902 429.255 534.344 434.317L535.902 429.255C538.698 430.115 540.267 433.079 539.407 435.875C538.553 438.65 535.626 440.217 532.849 439.398C532.842 439.396 532.831 439.394 532.816 439.39C532.755 439.375 532.632 439.346 532.459 439.316C532.106 439.254 531.595 439.191 531.012 439.2C529.816 439.216 528.684 439.511 527.784 440.296C526.93 441.04 525.54 442.874 525.092 447.491C524.637 452.178 525.207 459.34 527.995 470.06C528.001 470.086 528.008 470.112 528.014 470.138C530.221 479.187 532.047 487.238 533.018 494.034C533.97 500.694 534.222 506.864 532.733 511.827C531.958 514.412 530.668 516.82 528.643 518.765C526.606 520.722 524.098 521.949 521.306 522.581C515.962 523.792 509.257 522.897 501.374 520.672C498.559 519.877 496.921 516.951 497.716 514.136C498.511 511.321 501.437 509.683 504.252 510.477C511.714 512.584 516.293 512.856 518.965 512.25C520.181 511.975 520.866 511.547 521.304 511.126C521.754 510.694 522.222 510 522.587 508.783C523.379 506.142 523.442 501.904 522.532 495.533C521.642 489.308 519.934 481.717 517.732 472.687C514.79 461.358 513.928 452.863 514.548 446.468C515.176 439.995 517.373 435.319 520.822 432.311C524.226 429.344 528.114 428.646 530.863 428.608C532.253 428.588 533.445 428.733 534.302 428.884C534.735 428.961 535.093 429.041 535.363 429.108C535.498 429.141 535.612 429.171 535.702 429.197C535.747 429.209 535.786 429.221 535.82 429.23L535.865 429.244L535.885 429.25L535.894 429.252Z" clip-rule="evenodd" fill-rule="evenodd"></path>
<path fill="#3E2A25" d="M439.007 478.455C449.248 478.455 457.545 469.238 457.545 455.503C457.545 441.769 449.248 432.552 439.007 432.552C428.766 432.552 420.469 441.769 420.469 455.503C420.469 469.238 428.766 478.455 439.007 478.455Z" clip-rule="evenodd" fill-rule="evenodd"></path>
<path fill="#3E2A25" d="M583.774 478.455C594.011 478.455 602.318 469.238 602.318 455.503C602.318 441.769 594.011 432.552 583.774 432.552C573.549 432.552 565.242 441.769 565.242 455.503C565.242 469.238 573.549 478.455 583.774 478.455Z" clip-rule="evenodd" fill-rule="evenodd"></path>
<g opacity="0.604969" style="mix-blend-mode:multiply">
<circle fill="#FFD2B9" r="34.4276" cy="524.248" cx="411.348"></circle>
</g>
<g opacity="0.604969" style="mix-blend-mode:multiply">
<circle fill="#FFD2B9" r="34.4276" cy="524.248" cx="619.678"></circle>
</g>
<path fill="white" d="M470.787 568.496C470.787 568.496 492.856 566.731 514.042 566.731C535.228 566.731 562.594 569.379 562.594 569.379C562.594 569.379 546.704 586.152 516.691 586.152C486.677 586.152 470.787 568.496 470.787 568.496Z" clip-rule="evenodd" fill-rule="evenodd"></path>
<path fill="#C14E45" d="M470.787 568.496C466.85 572.039 466.852 572.041 466.853 572.043L466.857 572.047L466.866 572.057L466.888 572.081C466.905 572.099 466.925 572.122 466.95 572.148C466.999 572.202 467.064 572.271 467.145 572.356C467.308 572.525 467.534 572.756 467.823 573.039C468.401 573.606 469.235 574.383 470.32 575.3C472.488 577.133 475.675 579.534 479.856 581.922C488.231 586.708 500.604 591.448 516.69 591.448C532.72 591.448 545.058 586.962 553.424 582.42C557.6 580.153 560.787 577.873 562.958 576.13C564.044 575.258 564.879 574.518 565.46 573.978C565.75 573.708 565.977 573.488 566.14 573.326C566.222 573.245 566.287 573.178 566.337 573.127C566.362 573.101 566.383 573.08 566.4 573.062L566.422 573.039L566.431 573.029L566.435 573.025C566.437 573.023 566.439 573.022 562.594 569.379L566.439 573.022C567.831 571.552 568.264 569.419 567.555 567.523C566.846 565.628 565.118 564.302 563.104 564.107L562.594 569.379C563.104 564.107 563.104 564.107 563.104 564.107L562.779 564.076C562.569 564.056 562.26 564.027 561.86 563.991C561.061 563.917 559.899 563.813 558.439 563.688C555.521 563.438 551.409 563.104 546.631 562.771C537.099 562.106 524.818 561.434 514.042 561.434C503.317 561.434 492.399 561.88 484.184 562.325C480.071 562.547 476.624 562.769 474.202 562.936C472.991 563.02 472.036 563.09 471.381 563.139C471.054 563.163 470.802 563.182 470.631 563.196L470.365 563.216C470.365 563.216 470.365 563.216 470.787 568.496ZM485.366 572.87C492.437 576.864 502.929 580.855 516.69 580.855C530.242 580.855 540.629 577.192 547.703 573.467C547.112 573.424 546.509 573.381 545.894 573.338C536.447 572.679 524.452 572.027 514.042 572.027C503.841 572.027 493.403 572.442 485.366 572.87ZM470.787 568.496L470.365 563.216C468.356 563.377 466.612 564.664 465.866 566.536C465.121 568.408 465.502 570.541 466.85 572.039L470.787 568.496Z" clip-rule="evenodd" fill-rule="evenodd"></path>
<path fill="#697A8D" d="M367.504 423.792C367.504 419.854 370.696 416.662 374.634 416.662H494.553C498.491 416.662 501.683 419.854 501.683 423.792V450.207C501.683 487.26 471.646 517.297 434.594 517.297C397.541 517.297 367.504 487.26 367.504 450.207V423.792ZM374.57 423.767C374.569 423.77 374.566 423.776 374.566 423.792V450.207C374.566 483.359 401.441 510.235 434.594 510.235C467.746 510.235 494.621 483.359 494.621 450.207V423.792C494.621 423.776 494.619 423.77 494.617 423.767C494.615 423.761 494.61 423.753 494.601 423.744C494.593 423.735 494.584 423.73 494.579 423.728C494.575 423.727 494.569 423.724 494.553 423.724H374.634C374.618 423.724 374.612 423.727 374.609 423.728C374.603 423.73 374.595 423.735 374.586 423.744C374.577 423.753 374.572 423.761 374.57 423.767Z" clip-rule="evenodd" fill-rule="evenodd"></path>
<path fill="#697A8D" d="M526.401 423.792C526.401 419.854 529.593 416.662 533.53 416.662H653.45C657.388 416.662 660.58 419.854 660.58 423.792V450.207C660.58 487.26 630.543 517.297 593.49 517.297C556.438 517.297 526.401 487.26 526.401 450.207V423.792ZM533.466 423.767C533.465 423.77 533.463 423.776 533.463 423.792V450.207C533.463 483.359 560.338 510.235 593.49 510.235C626.642 510.235 653.518 483.359 653.518 450.207V423.792C653.518 423.776 653.515 423.77 653.514 423.767C653.512 423.761 653.507 423.753 653.498 423.744C653.489 423.735 653.481 423.73 653.475 423.728C653.472 423.727 653.466 423.724 653.45 423.724H533.53C533.515 423.724 533.508 423.727 533.505 423.728C533.5 423.73 533.491 423.735 533.482 423.744C533.474 423.753 533.469 423.761 533.466 423.767Z" clip-rule="evenodd" fill-rule="evenodd"></path>
<path fill="#697A8D" d="M499.268 461.502C499.268 461.502 499.269 461.502 498.152 458.152C497.036 454.802 497.036 454.802 497.036 454.802L497.048 454.798L497.076 454.789L497.175 454.756C497.261 454.728 497.385 454.688 497.543 454.637C497.86 454.536 498.314 454.393 498.878 454.221C500.002 453.88 501.569 453.424 503.339 452.967C506.775 452.08 511.348 451.09 514.925 451.09C518.546 451.09 522.703 452.098 525.748 453.001C527.315 453.465 528.676 453.928 529.646 454.276C530.133 454.45 530.524 454.596 530.797 454.7C530.934 454.752 531.041 454.794 531.116 454.823L531.205 454.858L531.23 454.868L531.242 454.873C531.242 454.873 531.243 454.873 529.931 458.152C528.62 461.43 528.621 461.431 528.621 461.431L528.607 461.425L528.545 461.401C528.488 461.378 528.4 461.344 528.283 461.3C528.049 461.211 527.703 461.081 527.265 460.924C526.387 460.61 525.155 460.19 523.742 459.772C520.829 458.909 517.482 458.152 514.925 458.152C512.322 458.152 508.509 458.926 505.103 459.805C503.453 460.231 501.985 460.658 500.93 460.979C500.404 461.139 499.983 461.271 499.696 461.363C499.552 461.409 499.442 461.445 499.37 461.468L499.29 461.495L499.268 461.502Z" clip-rule="evenodd" fill-rule="evenodd"></path>
<path fill="#8FB8FF" d="M612.149 786.218C617.257 780.556 622.443 774.807 627.908 769.177C653.006 791.563 748.5 811.5 792.5 815.5C836.5 819.5 905.586 844.03 923.043 908.482L941.698 1024.13H98.2832L108.042 933.183C118 835.5 191.384 820.449 256.992 808.573C262.094 807.65 267.353 806.698 272.772 805.669L346.322 797.733C371.026 793.237 393.942 787.715 406.767 776.27C421.958 804.786 458.478 907.513 518.5 908.482C563.999 909.215 586.972 814.126 612.149 786.218Z"></path>
<path fill="#4E7FD3" d="M518.195 910.854C513.285 910.854 481.992 910.854 454.287 917.73C426.582 924.607 410.175 951.135 397.371 946.36C384.568 941.584 383.046 880.116 385.087 848.058C387.128 816 399.835 757.5 412.638 757.5C425.442 757.5 458.682 889.821 518.195 910.854Z" clip-rule="evenodd" fill-rule="evenodd"></path>
<path fill="#4E7FD3" d="M518.52 910.854C523.43 910.854 554.723 910.854 582.428 917.73C610.133 924.607 626.54 951.135 639.344 946.36C652.147 941.584 653.669 880.116 651.628 848.058C649.587 816 636.88 757.5 624.076 757.5C611.273 757.5 582.428 889.821 518.52 910.854Z" clip-rule="evenodd" fill-rule="evenodd"></path>
</svg>
